<?xml version="1.0" encoding="utf-8"?>
<!-- Svg Vector Icons : http://www.onlinewebfonts.com/icon -->
<!DOCTYPE svg PUBLIC "-//W3C//DTD SVG 1.1//EN" "http://www.w3.org/Graphics/SVG/1.1/DTD/svg11.dtd">
<svg version="1.1" xmlns="http://www.w3.org/2000/svg" xmlns:xlink="http://www.w3.org/1999/xlink" x="0px" y="0px" viewBox="0 0 1000 1000" enable-background="new 0 0 1000 1000" xml:space="preserve">
<metadata> Svg Vector Icons : http://www.onlinewebfonts.com/icon </metadata>
<g><g transform="translate(0.000000,512.000000) scale(0.100000,-0.100000)"><path d="M2564.4,5018.5c-661.6-84.4-1206.3-347.1-1658.9-801.6c-406.6-408.5-657.8-878.4-771-1444.1c-46-234-46-772.9,0-1008.8C247.7,1202,502.7,722.6,905.5,321.8c397-398.9,836.2-636.7,1405.8-761.4c247.4-55.6,790.1-59.4,1045.2-9.6c560,111.2,1041.4,368.2,1442.2,771c402.7,400.8,659.7,882.2,771,1442.2c46,235.9,46,776.7,0,1008.8c-113.2,563.8-368.2,1041.4-771,1442.2c-398.9,400.8-884.1,659.7-1432.6,767.1C3212.6,5012.7,2702.5,5035.7,2564.4,5018.5z M3195.4,4387.5c667.4-109.3,1250.4-529.3,1555.3-1123.8c370.1-721.1,324.1-1528.5-128.5-2207.4c-49.9-76.7-164.9-212.9-255.1-303C3565.5-48.4,2303.6-90.5,1438.6,653.5c-203.3,174.5-374,400.8-504.4,665.5c-308.8,625.2-306.9,1298.4,7.7,1925.5C1358.1,4071.1,2274.8,4535.2,3195.4,4387.5z"/><path d="M2353.4,3158.2c-191.8-69-329.9-211-393.1-404.7c-26.8-80.5-30.7-166.8-24.9-525.5c5.7-412.3,7.7-433.4,53.7-525.5c59.5-122.7,174.5-237.8,297.3-297.3c94-47.9,103.6-47.9,565.8-47.9h469.9l120.8,65.2c134.2,72.9,191.8,132.3,268.5,278.1l51.8,97.8v469.9c0,462.2,0,471.8-47.9,565.8c-59.4,122.7-174.5,237.8-297.3,297.3c-92.1,46-111.2,47.9-537,51.8C2516.4,3187,2424.4,3183.1,2353.4,3158.2z M3158.9,2268.3v-306.8h-306.8h-306.9v306.8v306.9h306.9h306.8V2268.3z"/><path d="M7637,5003.1c-30.7-15.3-356.7-327.9-723-694.2c-719.2-723-709.6-711.5-677-884.1c9.6-63.3,99.7-161.1,696.2-757.5c740.3-740.3,726.9-728.8,899.5-696.2c94,17.3,209,132.3,226.3,226.3c30.7,163,17.3,184.1-398.9,604.1l-385.5,387.4h703.8h703.8V2082.3l1.9-1108.5l147.7-82.5c80.5-44.1,218.6-132.3,306.8-195.6l157.3-113.1l-3.8,1513.1c-5.8,1494-5.8,1513.1-46,1564.9c-21.1,28.8-63.3,71-92.1,92.1c-51.8,38.4-78.6,40.3-966.6,46l-912.9,5.8l385.5,387.4c327.9,327.9,387.4,398.9,398.9,460.3C8106.8,4905.3,7865.2,5106.7,7637,5003.1z"/><path d="M6793.1,713C5611.8,553.8,4668.2-339.9,4430.4-1523.2c-46-234-46-774.8,0-1008.8c201.4-1003,911-1810.4,1866-2121.1c283.8-92.1,517.8-126.6,851.5-126.6c761.4,0,1411.5,268.5,1946.6,805.5c537,535.1,805.5,1185.2,805.5,1946.6C9900-1264.3,9631.5-616,9094.5-81c-400.8,400.8-882.2,659.7-1428.8,767.1C7472.1,724.5,6983,739.8,6793.1,713z M7474,91.6c916.7-138.1,1643.6-861.1,1793.1-1783.6c117-715.3-161.1-1480.5-705.7-1950.4c-671.2-577.2-1568.8-692.3-2362.7-303C5126.6-3419.9,4695.1-2133,5232.1-1062.9c203.3,404.6,523.6,730.7,920.5,934C6578.3,89.7,7011.8,162.6,7474,91.6z"/><path d="M7017.5-830.8c-34.5-19.2-84.4-59.5-109.3-92.1c-65.2-88.2-935.9-1543.8-966.6-1618.6c-49.9-122.8-1.9-266.6,120.8-356.7c51.8-40.3,72.9-40.3,1085.5-40.3s1033.7,0,1085.5,40.3c134.2,97.8,174.5,247.4,109.3,385.5c-21.1,42.2-243.6,420-496.7,840c-308.8,512.1-479.5,776.7-521.7,811.2C7243.8-800.1,7105.7-786.7,7017.5-830.8z M7366.6-2037.1l199.4-287.7l-209-5.7c-115.1-1.9-303-1.9-418.1,0l-209,5.7l203.3,293.4c111.2,161.1,209,289.6,218.6,287.7C7159.4-1747.6,7257.3-1877.9,7366.6-2037.1z"/><path d="M707.9-1854.9c5.7-1494,5.7-1513.2,46-1564.9c21.1-28.8,63.3-71,92.1-92.1c51.8-38.4,78.6-40.3,966.6-46l912.9-5.8L2340-3951.1c-416.1-418.1-429.6-439.2-398.9-602.2c17.3-94,132.3-209,226.3-226.3c172.6-32.6,159.2-44.1,899.5,696.2c596.4,596.4,686.6,694.3,696.2,757.5c32.6,174.5,44.1,159.2-696.2,899.5c-740.3,740.3-726.9,728.8-899.5,696.2c-94-17.3-209-132.3-226.3-226.3c-30.7-163-17.2-184.1,398.9-602.2l385.5-389.3h-703.8h-703.8v1108.5L1315.9-733l-147.7,82.5c-80.6,44.1-218.6,132.3-306.9,195.6L704.1-341.8L707.9-1854.9z"/></g></g>
</svg>